{
	"patcher" : 	{
		"fileversion" : 1,
		"rect" : [ 50.0, 94.0, 1014.0, 607.0 ],
		"bglocked" : 0,
		"defrect" : [ 50.0, 94.0, 1014.0, 607.0 ],
		"openrect" : [ 0.0, 0.0, 0.0, 0.0 ],
		"openinpresentation" : 0,
		"default_fontsize" : 12.0,
		"default_fontface" : 0,
		"default_fontname" : "Arial",
		"gridonopen" : 0,
		"gridsize" : [ 15.0, 15.0 ],
		"gridsnaponopen" : 0,
		"toolbarvisible" : 1,
		"boxanimatetime" : 200,
		"imprint" : 0,
		"enablehscroll" : 1,
		"enablevscroll" : 1,
		"devicewidth" : 0.0,
		"boxes" : [ 			{
				"box" : 				{
					"maxclass" : "flonum",
					"fontsize" : 12.0,
					"numinlets" : 1,
					"patching_rect" : [ 375.0, 375.0, 50.0, 20.0 ],
					"id" : "obj-9",
					"numoutlets" : 2,
					"fontname" : "Arial",
					"outlettype" : [ "float", "bang" ]
				}

			}
, 			{
				"box" : 				{
					"maxclass" : "flonum",
					"fontsize" : 12.0,
					"numinlets" : 1,
					"patching_rect" : [ 660.0, 375.0, 50.0, 20.0 ],
					"id" : "obj-5",
					"numoutlets" : 2,
					"fontname" : "Arial",
					"outlettype" : [ "float", "bang" ]
				}

			}
, 			{
				"box" : 				{
					"maxclass" : "newobj",
					"text" : "unpack 0. 0.",
					"fontsize" : 12.0,
					"numinlets" : 1,
					"patching_rect" : [ 660.0, 345.0, 76.0, 20.0 ],
					"id" : "obj-3",
					"numoutlets" : 2,
					"fontname" : "Arial",
					"outlettype" : [ "float", "float" ]
				}

			}
, 			{
				"box" : 				{
					"maxclass" : "newobj",
					"text" : "unpack 0. 0.",
					"fontsize" : 12.0,
					"numinlets" : 1,
					"patching_rect" : [ 375.0, 345.0, 76.0, 20.0 ],
					"id" : "obj-1",
					"numoutlets" : 2,
					"fontname" : "Arial",
					"outlettype" : [ "float", "float" ]
				}

			}
, 			{
				"box" : 				{
					"maxclass" : "flonum",
					"fontsize" : 12.0,
					"numinlets" : 1,
					"patching_rect" : [ 180.0, 210.0, 50.0, 20.0 ],
					"id" : "obj-35",
					"numoutlets" : 2,
					"fontname" : "Arial",
					"outlettype" : [ "float", "bang" ]
				}

			}
, 			{
				"box" : 				{
					"maxclass" : "message",
					"text" : "2",
					"fontsize" : 12.0,
					"numinlets" : 2,
					"patching_rect" : [ 75.0, 240.0, 18.0, 18.0 ],
					"id" : "obj-33",
					"numoutlets" : 1,
					"fontname" : "Arial",
					"outlettype" : [ "" ]
				}

			}
, 			{
				"box" : 				{
					"maxclass" : "message",
					"text" : "1",
					"fontsize" : 12.0,
					"numinlets" : 2,
					"patching_rect" : [ 60.0, 240.0, 18.0, 18.0 ],
					"id" : "obj-31",
					"numoutlets" : 1,
					"fontname" : "Arial",
					"outlettype" : [ "" ]
				}

			}
, 			{
				"box" : 				{
					"maxclass" : "newobj",
					"text" : "selector~ 2",
					"fontsize" : 12.0,
					"numinlets" : 3,
					"patching_rect" : [ 105.0, 270.0, 70.0, 20.0 ],
					"id" : "obj-29",
					"numoutlets" : 1,
					"fontname" : "Arial",
					"outlettype" : [ "signal" ]
				}

			}
, 			{
				"box" : 				{
					"maxclass" : "newobj",
					"text" : "cycle~ 880",
					"fontsize" : 12.0,
					"numinlets" : 2,
					"patching_rect" : [ 150.0, 240.0, 68.0, 20.0 ],
					"id" : "obj-27",
					"numoutlets" : 1,
					"fontname" : "Arial",
					"outlettype" : [ "signal" ]
				}

			}
, 			{
				"box" : 				{
					"maxclass" : "flonum",
					"fontsize" : 12.0,
					"numinlets" : 1,
					"patching_rect" : [ 510.0, 435.0, 50.0, 20.0 ],
					"id" : "obj-23",
					"numoutlets" : 2,
					"fontname" : "Arial",
					"outlettype" : [ "float", "bang" ]
				}

			}
, 			{
				"box" : 				{
					"maxclass" : "newobj",
					"text" : "mtof",
					"fontsize" : 12.0,
					"numinlets" : 1,
					"patching_rect" : [ 510.0, 405.0, 34.0, 20.0 ],
					"id" : "obj-21",
					"numoutlets" : 1,
					"fontname" : "Arial",
					"outlettype" : [ "" ]
				}

			}
, 			{
				"box" : 				{
					"maxclass" : "flonum",
					"fontsize" : 12.0,
					"numinlets" : 1,
					"patching_rect" : [ 510.0, 375.0, 50.0, 20.0 ],
					"id" : "obj-20",
					"numoutlets" : 2,
					"fontname" : "Arial",
					"outlettype" : [ "float", "bang" ]
				}

			}
, 			{
				"box" : 				{
					"maxclass" : "newobj",
					"text" : "unpack 0. 0.",
					"fontsize" : 12.0,
					"numinlets" : 1,
					"patching_rect" : [ 510.0, 345.0, 76.0, 20.0 ],
					"id" : "obj-19",
					"numoutlets" : 2,
					"fontname" : "Arial",
					"outlettype" : [ "float", "float" ]
				}

			}
, 			{
				"box" : 				{
					"maxclass" : "newobj",
					"text" : "fiddle~ 1024 1 20 3",
					"fontsize" : 12.0,
					"numinlets" : 1,
					"patching_rect" : [ 510.0, 315.0, 113.0, 20.0 ],
					"id" : "obj-17",
					"numoutlets" : 5,
					"fontname" : "Arial",
					"outlettype" : [ "float", "bang", "list", "float", "list" ]
				}

			}
, 			{
				"box" : 				{
					"maxclass" : "comment",
					"text" : "based on fiddle\n",
					"fontsize" : 12.0,
					"numinlets" : 1,
					"patching_rect" : [ 675.0, 285.0, 94.0, 20.0 ],
					"id" : "obj-16",
					"numoutlets" : 0,
					"fontname" : "Arial"
				}

			}
, 			{
				"box" : 				{
					"maxclass" : "comment",
					"text" : "Perceptual loudness based on fiddle",
					"linecount" : 2,
					"fontsize" : 12.0,
					"numinlets" : 1,
					"patching_rect" : [ 375.0, 270.0, 122.0, 34.0 ],
					"id" : "obj-15",
					"numoutlets" : 0,
					"fontname" : "Arial"
				}

			}
, 			{
				"box" : 				{
					"maxclass" : "newobj",
					"text" : "pitch~ 2048 512 4096 blackman70 0 1 10 3",
					"fontsize" : 12.0,
					"numinlets" : 1,
					"patching_rect" : [ 660.0, 315.0, 241.0, 20.0 ],
					"id" : "obj-13",
					"numoutlets" : 5,
					"fontname" : "Arial",
					"outlettype" : [ "bang", "list", "list", "float", "list" ]
				}

			}
, 			{
				"box" : 				{
					"maxclass" : "newobj",
					"text" : "analyzer~",
					"fontsize" : 12.0,
					"numinlets" : 1,
					"patching_rect" : [ 375.0, 315.0, 100.0, 20.0 ],
					"id" : "obj-11",
					"numoutlets" : 7,
					"fontname" : "Arial",
					"outlettype" : [ "list", "float", "float", "float", "list", "bang", "list" ]
				}

			}
, 			{
				"box" : 				{
					"maxclass" : "flonum",
					"fontsize" : 12.0,
					"numinlets" : 1,
					"patching_rect" : [ 210.0, 375.0, 136.0, 20.0 ],
					"id" : "obj-8",
					"numoutlets" : 2,
					"fontname" : "Arial",
					"outlettype" : [ "float", "bang" ]
				}

			}
, 			{
				"box" : 				{
					"maxclass" : "newobj",
					"text" : "mtof",
					"fontsize" : 12.0,
					"numinlets" : 1,
					"patching_rect" : [ 210.0, 345.0, 34.0, 20.0 ],
					"id" : "obj-7",
					"numoutlets" : 1,
					"fontname" : "Arial",
					"outlettype" : [ "" ]
				}

			}
, 			{
				"box" : 				{
					"maxclass" : "ezdac~",
					"numinlets" : 2,
					"patching_rect" : [ 15.0, 315.0, 45.0, 45.0 ],
					"id" : "obj-6",
					"numoutlets" : 0
				}

			}
, 			{
				"box" : 				{
					"maxclass" : "flonum",
					"fontsize" : 12.0,
					"numinlets" : 1,
					"patching_rect" : [ 105.0, 375.0, 50.0, 20.0 ],
					"id" : "obj-2",
					"numoutlets" : 2,
					"fontname" : "Arial",
					"outlettype" : [ "float", "bang" ]
				}

			}
, 			{
				"box" : 				{
					"maxclass" : "newobj",
					"text" : "sigmund~ @hop 512 pitch",
					"fontsize" : 12.0,
					"numinlets" : 1,
					"patching_rect" : [ 210.0, 315.0, 150.0, 20.0 ],
					"id" : "obj-67",
					"numoutlets" : 2,
					"fontname" : "Arial",
					"outlettype" : [ "float", "" ]
				}

			}
, 			{
				"box" : 				{
					"maxclass" : "newobj",
					"text" : "sel 32",
					"fontsize" : 11.595187,
					"numinlets" : 2,
					"patching_rect" : [ 150.0, 189.0, 41.0, 20.0 ],
					"id" : "obj-48",
					"numoutlets" : 2,
					"fontname" : "Arial",
					"outlettype" : [ "bang", "" ]
				}

			}
, 			{
				"box" : 				{
					"maxclass" : "newobj",
					"text" : "key",
					"fontsize" : 11.595187,
					"numinlets" : 0,
					"patching_rect" : [ 150.0, 168.0, 38.705883, 20.0 ],
					"id" : "obj-49",
					"numoutlets" : 4,
					"fontname" : "Arial",
					"outlettype" : [ "int", "int", "int", "int" ]
				}

			}
, 			{
				"box" : 				{
					"maxclass" : "toggle",
					"numinlets" : 1,
					"patching_rect" : [ 150.0, 210.0, 20.0, 20.0 ],
					"id" : "obj-83",
					"numoutlets" : 1,
					"outlettype" : [ "int" ]
				}

			}
, 			{
				"box" : 				{
					"maxclass" : "message",
					"text" : "open",
					"fontsize" : 12.0,
					"numinlets" : 2,
					"patching_rect" : [ 105.0, 210.0, 37.0, 18.0 ],
					"id" : "obj-74",
					"numoutlets" : 1,
					"fontname" : "Arial",
					"outlettype" : [ "" ]
				}

			}
, 			{
				"box" : 				{
					"maxclass" : "newobj",
					"text" : "sfplay~",
					"fontsize" : 12.0,
					"numinlets" : 2,
					"patching_rect" : [ 105.0, 240.0, 49.0, 20.0 ],
					"id" : "obj-71",
					"numoutlets" : 2,
					"fontname" : "Arial",
					"outlettype" : [ "signal", "bang" ],
					"save" : [ "#N", "sfplay~", "", 1, 120960, 0, "", ";" ]
				}

			}
, 			{
				"box" : 				{
					"maxclass" : "newobj",
					"text" : "centroid~ 512",
					"fontsize" : 12.0,
					"numinlets" : 3,
					"patching_rect" : [ 105.0, 345.0, 84.0, 20.0 ],
					"id" : "obj-51",
					"numoutlets" : 1,
					"fontname" : "Arial",
					"outlettype" : [ "float" ]
				}

			}
, 			{
				"box" : 				{
					"maxclass" : "newobj",
					"text" : "fft~ 512 512 0",
					"fontsize" : 12.0,
					"numinlets" : 2,
					"patching_rect" : [ 105.0, 315.0, 84.0, 20.0 ],
					"id" : "obj-65",
					"numoutlets" : 3,
					"fontname" : "Arial",
					"outlettype" : [ "signal", "signal", "signal" ]
				}

			}
 ],
		"lines" : [ 			{
				"patchline" : 				{
					"source" : [ "obj-29", 0 ],
					"destination" : [ "obj-6", 1 ],
					"hidden" : 0,
					"midpoints" : [ 114.5, 298.5, 50.5, 298.5 ]
				}

			}
, 			{
				"patchline" : 				{
					"source" : [ "obj-29", 0 ],
					"destination" : [ "obj-6", 0 ],
					"hidden" : 0,
					"midpoints" : [ 114.5, 298.0, 24.5, 298.0 ]
				}

			}
, 			{
				"patchline" : 				{
					"source" : [ "obj-29", 0 ],
					"destination" : [ "obj-13", 0 ],
					"hidden" : 0,
					"midpoints" : [ 114.5, 309.5, 669.5, 309.5 ]
				}

			}
, 			{
				"patchline" : 				{
					"source" : [ "obj-35", 0 ],
					"destination" : [ "obj-27", 0 ],
					"hidden" : 0,
					"midpoints" : [  ]
				}

			}
, 			{
				"patchline" : 				{
					"source" : [ "obj-27", 0 ],
					"destination" : [ "obj-29", 2 ],
					"hidden" : 0,
					"midpoints" : [ 159.5, 263.0, 165.5, 263.0 ]
				}

			}
, 			{
				"patchline" : 				{
					"source" : [ "obj-33", 0 ],
					"destination" : [ "obj-29", 0 ],
					"hidden" : 0,
					"midpoints" : [ 84.5, 263.5, 114.5, 263.5 ]
				}

			}
, 			{
				"patchline" : 				{
					"source" : [ "obj-31", 0 ],
					"destination" : [ "obj-29", 0 ],
					"hidden" : 0,
					"midpoints" : [ 69.5, 263.5, 114.5, 263.5 ]
				}

			}
, 			{
				"patchline" : 				{
					"source" : [ "obj-71", 0 ],
					"destination" : [ "obj-29", 1 ],
					"hidden" : 0,
					"midpoints" : [ 114.5, 263.0, 140.0, 263.0 ]
				}

			}
, 			{
				"patchline" : 				{
					"source" : [ "obj-29", 0 ],
					"destination" : [ "obj-65", 0 ],
					"hidden" : 0,
					"midpoints" : [  ]
				}

			}
, 			{
				"patchline" : 				{
					"source" : [ "obj-29", 0 ],
					"destination" : [ "obj-67", 0 ],
					"hidden" : 0,
					"midpoints" : [ 114.5, 309.5, 219.5, 309.5 ]
				}

			}
, 			{
				"patchline" : 				{
					"source" : [ "obj-29", 0 ],
					"destination" : [ "obj-11", 0 ],
					"hidden" : 0,
					"midpoints" : [ 114.5, 309.5, 384.5, 309.5 ]
				}

			}
, 			{
				"patchline" : 				{
					"source" : [ "obj-29", 0 ],
					"destination" : [ "obj-17", 0 ],
					"hidden" : 0,
					"midpoints" : [ 114.5, 309.5, 519.5, 309.5 ]
				}

			}
, 			{
				"patchline" : 				{
					"source" : [ "obj-21", 0 ],
					"destination" : [ "obj-23", 0 ],
					"hidden" : 0,
					"midpoints" : [  ]
				}

			}
, 			{
				"patchline" : 				{
					"source" : [ "obj-20", 0 ],
					"destination" : [ "obj-21", 0 ],
					"hidden" : 0,
					"midpoints" : [  ]
				}

			}
, 			{
				"patchline" : 				{
					"source" : [ "obj-19", 0 ],
					"destination" : [ "obj-20", 0 ],
					"hidden" : 0,
					"midpoints" : [  ]
				}

			}
, 			{
				"patchline" : 				{
					"source" : [ "obj-17", 0 ],
					"destination" : [ "obj-19", 0 ],
					"hidden" : 0,
					"midpoints" : [  ]
				}

			}
, 			{
				"patchline" : 				{
					"source" : [ "obj-67", 0 ],
					"destination" : [ "obj-7", 0 ],
					"hidden" : 0,
					"midpoints" : [  ]
				}

			}
, 			{
				"patchline" : 				{
					"source" : [ "obj-7", 0 ],
					"destination" : [ "obj-8", 0 ],
					"hidden" : 0,
					"midpoints" : [  ]
				}

			}
, 			{
				"patchline" : 				{
					"source" : [ "obj-51", 0 ],
					"destination" : [ "obj-2", 0 ],
					"hidden" : 0,
					"midpoints" : [  ]
				}

			}
, 			{
				"patchline" : 				{
					"source" : [ "obj-65", 2 ],
					"destination" : [ "obj-51", 2 ],
					"hidden" : 0,
					"midpoints" : [  ]
				}

			}
, 			{
				"patchline" : 				{
					"source" : [ "obj-65", 1 ],
					"destination" : [ "obj-51", 1 ],
					"hidden" : 0,
					"midpoints" : [  ]
				}

			}
, 			{
				"patchline" : 				{
					"source" : [ "obj-65", 0 ],
					"destination" : [ "obj-51", 0 ],
					"hidden" : 0,
					"midpoints" : [  ]
				}

			}
, 			{
				"patchline" : 				{
					"source" : [ "obj-83", 0 ],
					"destination" : [ "obj-71", 0 ],
					"hidden" : 0,
					"midpoints" : [ 159.5, 233.0, 114.5, 233.0 ]
				}

			}
, 			{
				"patchline" : 				{
					"source" : [ "obj-74", 0 ],
					"destination" : [ "obj-71", 0 ],
					"hidden" : 0,
					"midpoints" : [  ]
				}

			}
, 			{
				"patchline" : 				{
					"source" : [ "obj-49", 0 ],
					"destination" : [ "obj-48", 0 ],
					"hidden" : 0,
					"midpoints" : [  ]
				}

			}
, 			{
				"patchline" : 				{
					"source" : [ "obj-48", 0 ],
					"destination" : [ "obj-83", 0 ],
					"hidden" : 0,
					"midpoints" : [  ]
				}

			}
, 			{
				"patchline" : 				{
					"source" : [ "obj-11", 0 ],
					"destination" : [ "obj-1", 0 ],
					"hidden" : 0,
					"midpoints" : [  ]
				}

			}
, 			{
				"patchline" : 				{
					"source" : [ "obj-13", 1 ],
					"destination" : [ "obj-3", 0 ],
					"hidden" : 0,
					"midpoints" : [ 725.0, 339.5, 669.5, 339.5 ]
				}

			}
, 			{
				"patchline" : 				{
					"source" : [ "obj-1", 1 ],
					"destination" : [ "obj-9", 0 ],
					"hidden" : 0,
					"midpoints" : [ 441.5, 369.5, 384.5, 369.5 ]
				}

			}
, 			{
				"patchline" : 				{
					"source" : [ "obj-3", 1 ],
					"destination" : [ "obj-5", 0 ],
					"hidden" : 0,
					"midpoints" : [ 726.5, 369.5, 669.5, 369.5 ]
				}

			}
 ]
	}

}
