{
	"patcher" : 	{
		"fileversion" : 1,
		"rect" : [ 360.0, 97.0, 1016.0, 777.0 ],
		"bglocked" : 0,
		"defrect" : [ 360.0, 97.0, 1016.0, 777.0 ],
		"openrect" : [ 0.0, 0.0, 0.0, 0.0 ],
		"openinpresentation" : 1,
		"default_fontsize" : 12.0,
		"default_fontface" : 0,
		"default_fontname" : "Arial",
		"gridonopen" : 0,
		"gridsize" : [ 15.0, 15.0 ],
		"gridsnaponopen" : 0,
		"toolbarvisible" : 1,
		"boxanimatetime" : 200,
		"imprint" : 0,
		"enablehscroll" : 1,
		"enablevscroll" : 1,
		"devicewidth" : 0.0,
		"boxes" : [ 			{
				"box" : 				{
					"fontname" : "Arial",
					"fontsize" : 12.0,
					"id" : "obj-26",
					"maxclass" : "comment",
					"numinlets" : 1,
					"numoutlets" : 0,
					"patching_rect" : [ 45.0, 300.0, 150.0, 20.0 ],
					"presentation" : 1,
					"presentation_rect" : [ 45.0, 285.0, 150.0, 20.0 ],
					"text" : "Clear EQ"
				}

			}
, 			{
				"box" : 				{
					"id" : "obj-24",
					"maxclass" : "button",
					"numinlets" : 1,
					"numoutlets" : 1,
					"outlettype" : [ "bang" ],
					"patching_rect" : [ 645.0, 270.0, 20.0, 20.0 ],
					"presentation" : 1,
					"presentation_rect" : [ 15.0, 285.0, 20.0, 20.0 ]
				}

			}
, 			{
				"box" : 				{
					"fontname" : "Arial",
					"fontsize" : 12.0,
					"id" : "obj-22",
					"maxclass" : "message",
					"numinlets" : 2,
					"numoutlets" : 1,
					"outlettype" : [ "" ],
					"patching_rect" : [ 225.0, 270.0, 407.0, 18.0 ],
					"text" : "1. 1. 1. 1. 1. 1. 1. 1. 1. 1. 1. 1. 1. 1. 1. 1. 1. 1. 1. 1. 1. 1. 1. 1. 1. 1. 1. 1. 1. 1."
				}

			}
, 			{
				"box" : 				{
					"fontname" : "Arial",
					"fontsize" : 11.595187,
					"id" : "obj-18",
					"maxclass" : "comment",
					"numinlets" : 1,
					"numoutlets" : 0,
					"patching_rect" : [ 945.0, 825.0, 54.0, 20.0 ],
					"presentation" : 1,
					"presentation_rect" : [ 341.0, 75.0, 54.0, 20.0 ],
					"text" : "Freq"
				}

			}
, 			{
				"box" : 				{
					"fontname" : "Arial",
					"fontsize" : 11.595187,
					"id" : "obj-19",
					"maxclass" : "comment",
					"numinlets" : 1,
					"numoutlets" : 0,
					"patching_rect" : [ 945.0, 825.0, 54.0, 20.0 ],
					"presentation" : 1,
					"presentation_rect" : [ 176.0, 75.0, 54.0, 20.0 ],
					"text" : "Freq"
				}

			}
, 			{
				"box" : 				{
					"fontname" : "Arial",
					"fontsize" : 11.595187,
					"id" : "obj-20",
					"maxclass" : "comment",
					"numinlets" : 1,
					"numoutlets" : 0,
					"patching_rect" : [ 945.0, 825.0, 54.0, 20.0 ],
					"presentation" : 1,
					"presentation_rect" : [ 11.0, 75.0, 54.0, 20.0 ],
					"text" : "Freq"
				}

			}
, 			{
				"box" : 				{
					"fontname" : "Arial",
					"fontsize" : 12.0,
					"id" : "obj-72",
					"maxclass" : "newobj",
					"numinlets" : 2,
					"numoutlets" : 1,
					"outlettype" : [ "signal" ],
					"patching_rect" : [ 90.0, 435.0, 62.0, 20.0 ],
					"text" : "cascade~"
				}

			}
, 			{
				"box" : 				{
					"bgcolor" : [ 0.823529, 0.823529, 0.823529, 1.0 ],
					"bwidthcolor" : [ 0.462745, 0.47451, 0.65098, 1.0 ],
					"domain" : [ 0.0, 22050.0 ],
					"fgcolor" : [ 0.666667, 0.666667, 0.666667, 1.0 ],
					"fontsize" : 8.998901,
					"hbwidthcolor" : [ 0.823529, 0.290196, 0.211765, 1.0 ],
					"hcurvecolor" : [ 1.0, 0.086275, 0.086275, 1.0 ],
					"id" : "obj-69",
					"logamp" : 0,
					"logmarkers" : [ 50.0, 500.0, 5000.0 ],
					"markercolor" : [ 0.509804, 0.509804, 0.509804, 1.0 ],
					"maxclass" : "filtergraph~",
					"nfilters" : 6,
					"numinlets" : 8,
					"numoutlets" : 7,
					"outlettype" : [ "list", "float", "float", "float", "float", "list", "int" ],
					"patching_rect" : [ 120.0, 300.0, 443.0, 119.0 ],
					"presentation" : 1,
					"presentation_rect" : [ 4.0, 136.0, 482.0, 140.0 ],
					"range" : [ 0.0, 2.0 ],
					"setfilter" : [ 5, 0, 1, 0, 0, 303.75, 1.0, 2.5, 0.0, 0.0, 0.0, 0.0, 0.0, 0.0, 4, 0, 1, 0, 0, 202.5, 1.0, 2.5, 0.0, 0.0, 0.0, 0.0, 0.0, 0.0, 3, 0, 1, 0, 0, 135.0, 1.0, 2.5, 0.0, 0.0, 0.0, 0.0, 0.0, 0.0, 2, 0, 1, 0, 0, 90.0, 1.0, 2.5, 0.0, 0.0, 0.0, 0.0, 0.0, 0.0, 1, 0, 1, 0, 0, 60.0, 1.0, 2.5, 0.0, 0.0, 0.0, 0.0, 0.0, 0.0, 0, 0, 0, 0, 0, 34.535206, 1.0, 1.0, 0.0001, 22050.0, 0.0001, 2.0, 0.5, 25.0 ]
				}

			}
, 			{
				"box" : 				{
					"comment" : "",
					"id" : "obj-68",
					"maxclass" : "inlet",
					"numinlets" : 0,
					"numoutlets" : 1,
					"outlettype" : [ "" ],
					"patching_rect" : [ 30.0, 30.0, 25.0, 25.0 ]
				}

			}
, 			{
				"box" : 				{
					"comment" : "",
					"id" : "obj-67",
					"maxclass" : "outlet",
					"numinlets" : 1,
					"numoutlets" : 0,
					"patching_rect" : [ 90.0, 460.0, 25.0, 25.0 ]
				}

			}
, 			{
				"box" : 				{
					"bordercolor" : [ 1.0, 0.0, 0.0, 1.0 ],
					"fontname" : "Arial",
					"fontsize" : 12.0,
					"id" : "obj-56",
					"maxclass" : "number",
					"maximum" : 22500,
					"minimum" : 10,
					"numinlets" : 1,
					"numoutlets" : 2,
					"outlettype" : [ "int", "bang" ],
					"patching_rect" : [ 825.0, 120.0, 50.0, 20.0 ],
					"presentation" : 1,
					"presentation_rect" : [ 339.0, 105.0, 50.0, 20.0 ]
				}

			}
, 			{
				"box" : 				{
					"id" : "obj-57",
					"maxclass" : "live.dial",
					"numinlets" : 1,
					"numoutlets" : 2,
					"outlettype" : [ "", "float" ],
					"parameter_enable" : 1,
					"patching_rect" : [ 885.0, 90.0, 44.0, 53.0 ],
					"presentation" : 1,
					"presentation_rect" : [ 399.0, 75.0, 44.0, 53.0 ],
					"saved_attribute_attributes" : 					{
						"valueof" : 						{
							"parameter_order" : 0,
							"parameter_defer" : 0,
							"parameter_speedlim" : 1.0,
							"parameter_steps" : 0,
							"parameter_invisible" : 0,
							"parameter_exponent" : 1.0,
							"parameter_annotation_name" : "",
							"parameter_unitstyle" : 1,
							"parameter_mmax" : 2.0,
							"parameter_mmin" : 0.1,
							"parameter_initial" : [ 1.0 ],
							"parameter_type" : 0,
							"parameter_initial_enable" : 1,
							"parameter_shortname" : "Gain",
							"parameter_modmax" : 127.0,
							"parameter_longname" : "Q[10]",
							"parameter_modmin" : 0.0,
							"parameter_linknames" : 0,
							"parameter_modmode" : 0,
							"parameter_info" : "",
							"parameter_units" : ""
						}

					}
,
					"triangle" : 1,
					"varname" : "Q[10]"
				}

			}
, 			{
				"box" : 				{
					"id" : "obj-58",
					"maxclass" : "live.dial",
					"numinlets" : 1,
					"numoutlets" : 2,
					"outlettype" : [ "", "float" ],
					"parameter_enable" : 1,
					"patching_rect" : [ 930.0, 90.0, 44.0, 53.0 ],
					"presentation" : 1,
					"presentation_rect" : [ 444.0, 75.0, 44.0, 53.0 ],
					"saved_attribute_attributes" : 					{
						"valueof" : 						{
							"parameter_order" : 0,
							"parameter_defer" : 0,
							"parameter_speedlim" : 1.0,
							"parameter_steps" : 0,
							"parameter_invisible" : 0,
							"parameter_exponent" : 1.0,
							"parameter_annotation_name" : "",
							"parameter_unitstyle" : 1,
							"parameter_mmax" : 2.0,
							"parameter_mmin" : 0.0,
							"parameter_initial" : [ 1 ],
							"parameter_type" : 0,
							"parameter_initial_enable" : 1,
							"parameter_shortname" : "Q",
							"parameter_modmax" : 127.0,
							"parameter_longname" : "Q[11]",
							"parameter_modmin" : 0.0,
							"parameter_linknames" : 0,
							"parameter_modmode" : 0,
							"parameter_info" : "",
							"parameter_units" : ""
						}

					}
,
					"triangle" : 1,
					"varname" : "Q[11]"
				}

			}
, 			{
				"box" : 				{
					"bordercolor" : [ 1.0, 0.0, 0.0, 1.0 ],
					"fontname" : "Arial",
					"fontsize" : 12.0,
					"id" : "obj-52",
					"maxclass" : "number",
					"maximum" : 22500,
					"minimum" : 1,
					"numinlets" : 1,
					"numoutlets" : 2,
					"outlettype" : [ "int", "bang" ],
					"patching_rect" : [ 675.0, 120.0, 50.0, 20.0 ],
					"presentation" : 1,
					"presentation_rect" : [ 338.0, 40.0, 50.0, 20.0 ]
				}

			}
, 			{
				"box" : 				{
					"id" : "obj-53",
					"maxclass" : "live.dial",
					"numinlets" : 1,
					"numoutlets" : 2,
					"outlettype" : [ "", "float" ],
					"parameter_enable" : 1,
					"patching_rect" : [ 735.0, 90.0, 44.0, 53.0 ],
					"presentation" : 1,
					"presentation_rect" : [ 398.0, 10.0, 44.0, 53.0 ],
					"saved_attribute_attributes" : 					{
						"valueof" : 						{
							"parameter_order" : 0,
							"parameter_defer" : 0,
							"parameter_speedlim" : 1.0,
							"parameter_steps" : 0,
							"parameter_invisible" : 0,
							"parameter_exponent" : 1.0,
							"parameter_annotation_name" : "",
							"parameter_unitstyle" : 1,
							"parameter_mmax" : 2.0,
							"parameter_mmin" : 0.1,
							"parameter_initial" : [ 1.0 ],
							"parameter_type" : 0,
							"parameter_initial_enable" : 1,
							"parameter_shortname" : "Gain",
							"parameter_modmax" : 127.0,
							"parameter_longname" : "Q[8]",
							"parameter_modmin" : 0.0,
							"parameter_linknames" : 0,
							"parameter_modmode" : 0,
							"parameter_info" : "",
							"parameter_units" : ""
						}

					}
,
					"triangle" : 1,
					"varname" : "Q[8]"
				}

			}
, 			{
				"box" : 				{
					"id" : "obj-54",
					"maxclass" : "live.dial",
					"numinlets" : 1,
					"numoutlets" : 2,
					"outlettype" : [ "", "float" ],
					"parameter_enable" : 1,
					"patching_rect" : [ 780.0, 90.0, 44.0, 53.0 ],
					"presentation" : 1,
					"presentation_rect" : [ 443.0, 10.0, 44.0, 53.0 ],
					"saved_attribute_attributes" : 					{
						"valueof" : 						{
							"parameter_order" : 0,
							"parameter_defer" : 0,
							"parameter_speedlim" : 1.0,
							"parameter_steps" : 0,
							"parameter_invisible" : 0,
							"parameter_exponent" : 1.0,
							"parameter_annotation_name" : "",
							"parameter_unitstyle" : 1,
							"parameter_mmax" : 25.0,
							"parameter_mmin" : 0.0,
							"parameter_initial" : [ 12.5 ],
							"parameter_type" : 0,
							"parameter_initial_enable" : 1,
							"parameter_shortname" : "Q",
							"parameter_modmax" : 127.0,
							"parameter_longname" : "Q[9]",
							"parameter_modmin" : 0.0,
							"parameter_linknames" : 0,
							"parameter_modmode" : 0,
							"parameter_info" : "",
							"parameter_units" : ""
						}

					}
,
					"triangle" : 1,
					"varname" : "Q[9]"
				}

			}
, 			{
				"box" : 				{
					"fontname" : "Arial",
					"fontsize" : 11.595187,
					"id" : "obj-55",
					"maxclass" : "comment",
					"numinlets" : 1,
					"numoutlets" : 0,
					"patching_rect" : [ 945.0, 825.0, 54.0, 20.0 ],
					"presentation" : 1,
					"presentation_rect" : [ 340.0, 8.0, 54.0, 20.0 ],
					"text" : "Freq"
				}

			}
, 			{
				"box" : 				{
					"bordercolor" : [ 1.0, 0.0, 0.0, 1.0 ],
					"fontname" : "Arial",
					"fontsize" : 12.0,
					"id" : "obj-48",
					"maxclass" : "number",
					"maximum" : 22500,
					"minimum" : 1,
					"numinlets" : 1,
					"numoutlets" : 2,
					"outlettype" : [ "int", "bang" ],
					"patching_rect" : [ 525.0, 120.0, 50.0, 20.0 ],
					"presentation" : 1,
					"presentation_rect" : [ 176.0, 104.0, 50.0, 20.0 ]
				}

			}
, 			{
				"box" : 				{
					"id" : "obj-49",
					"maxclass" : "live.dial",
					"numinlets" : 1,
					"numoutlets" : 2,
					"outlettype" : [ "", "float" ],
					"parameter_enable" : 1,
					"patching_rect" : [ 585.0, 90.0, 44.0, 53.0 ],
					"presentation" : 1,
					"presentation_rect" : [ 236.0, 74.0, 44.0, 53.0 ],
					"saved_attribute_attributes" : 					{
						"valueof" : 						{
							"parameter_order" : 0,
							"parameter_defer" : 0,
							"parameter_speedlim" : 1.0,
							"parameter_steps" : 0,
							"parameter_invisible" : 0,
							"parameter_exponent" : 1.0,
							"parameter_annotation_name" : "",
							"parameter_unitstyle" : 1,
							"parameter_mmax" : 2.0,
							"parameter_mmin" : 0.1,
							"parameter_initial" : [ 1.0 ],
							"parameter_type" : 0,
							"parameter_initial_enable" : 1,
							"parameter_shortname" : "Gain",
							"parameter_modmax" : 127.0,
							"parameter_longname" : "Q[6]",
							"parameter_modmin" : 0.0,
							"parameter_linknames" : 0,
							"parameter_modmode" : 0,
							"parameter_info" : "",
							"parameter_units" : ""
						}

					}
,
					"triangle" : 1,
					"varname" : "Q[6]"
				}

			}
, 			{
				"box" : 				{
					"id" : "obj-50",
					"maxclass" : "live.dial",
					"numinlets" : 1,
					"numoutlets" : 2,
					"outlettype" : [ "", "float" ],
					"parameter_enable" : 1,
					"patching_rect" : [ 630.0, 90.0, 44.0, 53.0 ],
					"presentation" : 1,
					"presentation_rect" : [ 281.0, 74.0, 44.0, 53.0 ],
					"saved_attribute_attributes" : 					{
						"valueof" : 						{
							"parameter_order" : 0,
							"parameter_defer" : 0,
							"parameter_speedlim" : 1.0,
							"parameter_steps" : 0,
							"parameter_invisible" : 0,
							"parameter_exponent" : 1.0,
							"parameter_annotation_name" : "",
							"parameter_unitstyle" : 1,
							"parameter_mmax" : 25.0,
							"parameter_mmin" : 0.0,
							"parameter_initial" : [ 12.5 ],
							"parameter_type" : 0,
							"parameter_initial_enable" : 1,
							"parameter_shortname" : "Q",
							"parameter_modmax" : 127.0,
							"parameter_longname" : "Q[7]",
							"parameter_modmin" : 0.0,
							"parameter_linknames" : 0,
							"parameter_modmode" : 0,
							"parameter_info" : "",
							"parameter_units" : ""
						}

					}
,
					"triangle" : 1,
					"varname" : "Q[7]"
				}

			}
, 			{
				"box" : 				{
					"bordercolor" : [ 1.0, 0.0, 0.0, 1.0 ],
					"fontname" : "Arial",
					"fontsize" : 12.0,
					"id" : "obj-44",
					"maxclass" : "number",
					"maximum" : 22500,
					"minimum" : 1,
					"numinlets" : 1,
					"numoutlets" : 2,
					"outlettype" : [ "int", "bang" ],
					"patching_rect" : [ 375.0, 120.0, 50.0, 20.0 ],
					"presentation" : 1,
					"presentation_rect" : [ 175.0, 38.0, 50.0, 20.0 ]
				}

			}
, 			{
				"box" : 				{
					"id" : "obj-45",
					"maxclass" : "live.dial",
					"numinlets" : 1,
					"numoutlets" : 2,
					"outlettype" : [ "", "float" ],
					"parameter_enable" : 1,
					"patching_rect" : [ 435.0, 90.0, 44.0, 53.0 ],
					"presentation" : 1,
					"presentation_rect" : [ 235.0, 8.0, 44.0, 53.0 ],
					"saved_attribute_attributes" : 					{
						"valueof" : 						{
							"parameter_order" : 0,
							"parameter_defer" : 0,
							"parameter_speedlim" : 1.0,
							"parameter_steps" : 0,
							"parameter_invisible" : 0,
							"parameter_exponent" : 1.0,
							"parameter_annotation_name" : "",
							"parameter_unitstyle" : 1,
							"parameter_mmax" : 2.0,
							"parameter_mmin" : 0.1,
							"parameter_initial" : [ 1.0 ],
							"parameter_type" : 0,
							"parameter_initial_enable" : 1,
							"parameter_shortname" : "Gain",
							"parameter_modmax" : 127.0,
							"parameter_longname" : "Q[4]",
							"parameter_modmin" : 0.0,
							"parameter_linknames" : 0,
							"parameter_modmode" : 0,
							"parameter_info" : "",
							"parameter_units" : ""
						}

					}
,
					"triangle" : 1,
					"varname" : "Q[4]"
				}

			}
, 			{
				"box" : 				{
					"id" : "obj-46",
					"maxclass" : "live.dial",
					"numinlets" : 1,
					"numoutlets" : 2,
					"outlettype" : [ "", "float" ],
					"parameter_enable" : 1,
					"patching_rect" : [ 480.0, 90.0, 44.0, 53.0 ],
					"presentation" : 1,
					"presentation_rect" : [ 280.0, 8.0, 44.0, 53.0 ],
					"saved_attribute_attributes" : 					{
						"valueof" : 						{
							"parameter_order" : 0,
							"parameter_defer" : 0,
							"parameter_speedlim" : 1.0,
							"parameter_steps" : 0,
							"parameter_invisible" : 0,
							"parameter_exponent" : 1.0,
							"parameter_annotation_name" : "",
							"parameter_unitstyle" : 1,
							"parameter_mmax" : 25.0,
							"parameter_mmin" : 0.0,
							"parameter_initial" : [ 12.5 ],
							"parameter_type" : 0,
							"parameter_initial_enable" : 1,
							"parameter_shortname" : "Q",
							"parameter_modmax" : 127.0,
							"parameter_longname" : "Q[5]",
							"parameter_modmin" : 0.0,
							"parameter_linknames" : 0,
							"parameter_modmode" : 0,
							"parameter_info" : "",
							"parameter_units" : ""
						}

					}
,
					"triangle" : 1,
					"varname" : "Q[5]"
				}

			}
, 			{
				"box" : 				{
					"fontname" : "Arial",
					"fontsize" : 11.595187,
					"id" : "obj-47",
					"maxclass" : "comment",
					"numinlets" : 1,
					"numoutlets" : 0,
					"patching_rect" : [ 945.0, 825.0, 54.0, 20.0 ],
					"presentation" : 1,
					"presentation_rect" : [ 175.0, 8.0, 54.0, 20.0 ],
					"text" : "Freq"
				}

			}
, 			{
				"box" : 				{
					"bordercolor" : [ 1.0, 0.0, 0.0, 1.0 ],
					"fontname" : "Arial",
					"fontsize" : 12.0,
					"id" : "obj-43",
					"maxclass" : "number",
					"maximum" : 22500,
					"minimum" : 1,
					"numinlets" : 1,
					"numoutlets" : 2,
					"outlettype" : [ "int", "bang" ],
					"patching_rect" : [ 225.0, 120.0, 50.0, 20.0 ],
					"presentation" : 1,
					"presentation_rect" : [ 10.0, 104.0, 50.0, 20.0 ]
				}

			}
, 			{
				"box" : 				{
					"bordercolor" : [ 1.0, 0.0, 0.0, 1.0 ],
					"fontname" : "Arial",
					"fontsize" : 12.0,
					"id" : "obj-42",
					"maxclass" : "number",
					"maximum" : 22500,
					"minimum" : 1,
					"numinlets" : 1,
					"numoutlets" : 2,
					"outlettype" : [ "int", "bang" ],
					"patching_rect" : [ 75.0, 120.0, 50.0, 20.0 ],
					"presentation" : 1,
					"presentation_rect" : [ 10.0, 38.0, 50.0, 20.0 ]
				}

			}
, 			{
				"box" : 				{
					"id" : "obj-35",
					"maxclass" : "live.dial",
					"numinlets" : 1,
					"numoutlets" : 2,
					"outlettype" : [ "", "float" ],
					"parameter_enable" : 1,
					"patching_rect" : [ 286.0, 90.0, 44.0, 53.0 ],
					"presentation" : 1,
					"presentation_rect" : [ 69.0, 74.0, 44.0, 53.0 ],
					"saved_attribute_attributes" : 					{
						"valueof" : 						{
							"parameter_order" : 0,
							"parameter_defer" : 0,
							"parameter_speedlim" : 1.0,
							"parameter_steps" : 0,
							"parameter_invisible" : 0,
							"parameter_exponent" : 1.0,
							"parameter_annotation_name" : "",
							"parameter_unitstyle" : 1,
							"parameter_mmax" : 2.0,
							"parameter_mmin" : 0.1,
							"parameter_initial" : [ 1.0 ],
							"parameter_type" : 0,
							"parameter_initial_enable" : 1,
							"parameter_shortname" : "Gain",
							"parameter_modmax" : 127.0,
							"parameter_longname" : "Q[2]",
							"parameter_modmin" : 0.0,
							"parameter_linknames" : 0,
							"parameter_modmode" : 0,
							"parameter_info" : "",
							"parameter_units" : ""
						}

					}
,
					"triangle" : 1,
					"varname" : "Q[2]"
				}

			}
, 			{
				"box" : 				{
					"id" : "obj-36",
					"maxclass" : "live.dial",
					"numinlets" : 1,
					"numoutlets" : 2,
					"outlettype" : [ "", "float" ],
					"parameter_enable" : 1,
					"patching_rect" : [ 330.0, 90.0, 44.0, 53.0 ],
					"presentation" : 1,
					"presentation_rect" : [ 115.0, 74.0, 44.0, 53.0 ],
					"saved_attribute_attributes" : 					{
						"valueof" : 						{
							"parameter_order" : 0,
							"parameter_defer" : 0,
							"parameter_speedlim" : 1.0,
							"parameter_steps" : 0,
							"parameter_invisible" : 0,
							"parameter_exponent" : 1.0,
							"parameter_annotation_name" : "",
							"parameter_unitstyle" : 1,
							"parameter_mmax" : 25.0,
							"parameter_mmin" : 0.0,
							"parameter_initial" : [ 12.5 ],
							"parameter_type" : 0,
							"parameter_initial_enable" : 1,
							"parameter_shortname" : "Q",
							"parameter_modmax" : 127.0,
							"parameter_longname" : "Q[3]",
							"parameter_modmin" : 0.0,
							"parameter_linknames" : 0,
							"parameter_modmode" : 0,
							"parameter_info" : "",
							"parameter_units" : ""
						}

					}
,
					"triangle" : 1,
					"varname" : "Q[3]"
				}

			}
, 			{
				"box" : 				{
					"id" : "obj-12",
					"maxclass" : "live.dial",
					"numinlets" : 1,
					"numoutlets" : 2,
					"outlettype" : [ "", "float" ],
					"parameter_enable" : 1,
					"patching_rect" : [ 136.0, 90.0, 44.0, 53.0 ],
					"presentation" : 1,
					"presentation_rect" : [ 70.0, 8.0, 44.0, 53.0 ],
					"saved_attribute_attributes" : 					{
						"valueof" : 						{
							"parameter_order" : 0,
							"parameter_defer" : 0,
							"parameter_speedlim" : 1.0,
							"parameter_steps" : 0,
							"parameter_invisible" : 0,
							"parameter_exponent" : 1.0,
							"parameter_annotation_name" : "",
							"parameter_unitstyle" : 1,
							"parameter_mmax" : 2.0,
							"parameter_mmin" : 0.1,
							"parameter_initial" : [ 1.0 ],
							"parameter_type" : 0,
							"parameter_initial_enable" : 1,
							"parameter_shortname" : "Gain",
							"parameter_modmax" : 127.0,
							"parameter_longname" : "Q[1]",
							"parameter_modmin" : 0.0,
							"parameter_linknames" : 0,
							"parameter_modmode" : 0,
							"parameter_info" : "",
							"parameter_units" : ""
						}

					}
,
					"triangle" : 1,
					"varname" : "Q[1]"
				}

			}
, 			{
				"box" : 				{
					"id" : "obj-11",
					"maxclass" : "live.dial",
					"numinlets" : 1,
					"numoutlets" : 2,
					"outlettype" : [ "", "float" ],
					"parameter_enable" : 1,
					"patching_rect" : [ 181.0, 90.0, 44.0, 53.0 ],
					"presentation" : 1,
					"presentation_rect" : [ 115.0, 8.0, 44.0, 53.0 ],
					"saved_attribute_attributes" : 					{
						"valueof" : 						{
							"parameter_order" : 0,
							"parameter_defer" : 0,
							"parameter_speedlim" : 1.0,
							"parameter_steps" : 0,
							"parameter_invisible" : 0,
							"parameter_exponent" : 1.0,
							"parameter_annotation_name" : "",
							"parameter_unitstyle" : 1,
							"parameter_mmax" : 2.0,
							"parameter_mmin" : 0.0,
							"parameter_initial" : [ 1.0 ],
							"parameter_type" : 0,
							"parameter_initial_enable" : 1,
							"parameter_shortname" : "Q",
							"parameter_modmax" : 127.0,
							"parameter_longname" : "Q",
							"parameter_modmin" : 0.0,
							"parameter_linknames" : 0,
							"parameter_modmode" : 0,
							"parameter_info" : "",
							"parameter_units" : ""
						}

					}
,
					"triangle" : 1,
					"varname" : "Q"
				}

			}
, 			{
				"box" : 				{
					"fontname" : "Arial",
					"fontsize" : 11.595187,
					"id" : "obj-82",
					"maxclass" : "comment",
					"numinlets" : 1,
					"numoutlets" : 0,
					"patching_rect" : [ 945.0, 825.0, 54.0, 20.0 ],
					"presentation" : 1,
					"presentation_rect" : [ 10.0, 8.0, 54.0, 20.0 ],
					"text" : "Freq"
				}

			}
, 			{
				"box" : 				{
					"id" : "obj-1",
					"maxclass" : "button",
					"numinlets" : 1,
					"numoutlets" : 1,
					"outlettype" : [ "bang" ],
					"patching_rect" : [ 73.0, 230.0, 20.0, 20.0 ]
				}

			}
, 			{
				"box" : 				{
					"fontname" : "Arial",
					"fontsize" : 11.595187,
					"id" : "obj-3",
					"maxclass" : "newobj",
					"numinlets" : 1,
					"numoutlets" : 1,
					"outlettype" : [ "" ],
					"patching_rect" : [ 120.0, 272.0, 97.0, 20.0 ],
					"text" : "prepend cascade"
				}

			}
, 			{
				"box" : 				{
					"fontname" : "Arial",
					"fontsize" : 11.595187,
					"id" : "obj-4",
					"maxclass" : "newobj",
					"numinlets" : 30,
					"numoutlets" : 1,
					"outlettype" : [ "" ],
					"patching_rect" : [ 120.0, 247.0, 570.0, 20.0 ],
					"text" : "pack 0. 0. 0. 0. 0. 0. 0. 0. 0. 0. 0. 0. 0. 0. 0. 0. 0. 0. 0. 0. 0. 0. 0. 0. 0. 0. 0. 0. 0. 0."
				}

			}
, 			{
				"box" : 				{
					"autoout" : 1,
					"bgcolor" : [ 0.823529, 0.823529, 0.823529, 1.0 ],
					"bwidthcolor" : [ 0.462745, 0.47451, 0.65098, 1.0 ],
					"dbdisplay" : 0,
					"domain" : [ 0.0, 22050.0 ],
					"fgcolor" : [ 0.666667, 0.666667, 0.666667, 1.0 ],
					"fontsize" : 8.998901,
					"hbwidthcolor" : [ 0.823529, 0.290196, 0.211765, 1.0 ],
					"hcurvecolor" : [ 1.0, 0.086275, 0.086275, 1.0 ],
					"id" : "obj-5",
					"logamp" : 0,
					"logmarkers" : [ 50.0, 500.0, 5000.0 ],
					"markercolor" : [ 0.509804, 0.509804, 0.509804, 1.0 ],
					"maxclass" : "filtergraph~",
					"nfilters" : 1,
					"numinlets" : 8,
					"numoutlets" : 7,
					"outlettype" : [ "list", "float", "float", "float", "float", "list", "int" ],
					"patching_rect" : [ 825.0, 165.0, 94.0, 48.0 ],
					"range" : [ 0.0, 2.0 ],
					"setfilter" : [ 0, 7, 0, 0, 0, 1677.220581, 1.0, 1.0, 0.0001, 22050.0, 0.0001, 2.0, 0.5, 25.0 ]
				}

			}
, 			{
				"box" : 				{
					"autoout" : 1,
					"bgcolor" : [ 0.823529, 0.823529, 0.823529, 1.0 ],
					"bwidthcolor" : [ 0.462745, 0.47451, 0.65098, 1.0 ],
					"dbdisplay" : 0,
					"domain" : [ 0.0, 22050.0 ],
					"fgcolor" : [ 0.666667, 0.666667, 0.666667, 1.0 ],
					"fontsize" : 8.998901,
					"hbwidthcolor" : [ 0.823529, 0.290196, 0.211765, 1.0 ],
					"hcurvecolor" : [ 1.0, 0.086275, 0.086275, 1.0 ],
					"id" : "obj-6",
					"logamp" : 0,
					"logmarkers" : [ 50.0, 500.0, 5000.0 ],
					"markercolor" : [ 0.509804, 0.509804, 0.509804, 1.0 ],
					"maxclass" : "filtergraph~",
					"nfilters" : 1,
					"numinlets" : 8,
					"numoutlets" : 7,
					"outlettype" : [ "list", "float", "float", "float", "float", "list", "int" ],
					"patching_rect" : [ 675.0, 165.0, 94.0, 48.0 ],
					"range" : [ 0.0, 2.0 ],
					"setfilter" : [ 0, 5, 0, 0, 0, 2493.571289, 1.0, 12.5, 0.0001, 22050.0, 0.0001, 2.0, 0.5, 25.0 ]
				}

			}
, 			{
				"box" : 				{
					"autoout" : 1,
					"bgcolor" : [ 0.823529, 0.823529, 0.823529, 1.0 ],
					"bwidthcolor" : [ 0.462745, 0.47451, 0.65098, 1.0 ],
					"dbdisplay" : 0,
					"domain" : [ 0.0, 22050.0 ],
					"fgcolor" : [ 0.666667, 0.666667, 0.666667, 1.0 ],
					"fontsize" : 8.998901,
					"hbwidthcolor" : [ 0.823529, 0.290196, 0.211765, 1.0 ],
					"hcurvecolor" : [ 1.0, 0.086275, 0.086275, 1.0 ],
					"id" : "obj-7",
					"logamp" : 0,
					"logmarkers" : [ 50.0, 500.0, 5000.0 ],
					"markercolor" : [ 0.509804, 0.509804, 0.509804, 1.0 ],
					"maxclass" : "filtergraph~",
					"nfilters" : 1,
					"numinlets" : 8,
					"numoutlets" : 7,
					"outlettype" : [ "list", "float", "float", "float", "float", "list", "int" ],
					"patching_rect" : [ 525.0, 165.0, 94.0, 48.0 ],
					"range" : [ 0.0, 2.0 ],
					"setfilter" : [ 0, 5, 0, 0, 0, 125.694527, 1.0, 12.5, 0.0001, 22050.0, 0.0001, 2.0, 0.5, 25.0 ]
				}

			}
, 			{
				"box" : 				{
					"autoout" : 1,
					"bgcolor" : [ 0.823529, 0.823529, 0.823529, 1.0 ],
					"bwidthcolor" : [ 0.462745, 0.47451, 0.65098, 1.0 ],
					"dbdisplay" : 0,
					"domain" : [ 0.0, 22050.0 ],
					"fgcolor" : [ 0.666667, 0.666667, 0.666667, 1.0 ],
					"fontsize" : 8.998901,
					"hbwidthcolor" : [ 0.823529, 0.290196, 0.211765, 1.0 ],
					"hcurvecolor" : [ 1.0, 0.086275, 0.086275, 1.0 ],
					"id" : "obj-8",
					"logamp" : 0,
					"logmarkers" : [ 50.0, 500.0, 5000.0 ],
					"markercolor" : [ 0.509804, 0.509804, 0.509804, 1.0 ],
					"maxclass" : "filtergraph~",
					"nfilters" : 1,
					"numinlets" : 8,
					"numoutlets" : 7,
					"outlettype" : [ "list", "float", "float", "float", "float", "list", "int" ],
					"patching_rect" : [ 375.0, 165.0, 94.0, 48.0 ],
					"range" : [ 0.0, 2.0 ],
					"setfilter" : [ 0, 5, 0, 0, 0, 166.0, 1.0, 12.5, 0.0001, 22050.0, 0.0001, 2.0, 0.5, 25.0 ]
				}

			}
, 			{
				"box" : 				{
					"autoout" : 1,
					"bgcolor" : [ 0.823529, 0.823529, 0.823529, 1.0 ],
					"bwidthcolor" : [ 0.462745, 0.47451, 0.65098, 1.0 ],
					"dbdisplay" : 0,
					"domain" : [ 0.0, 22050.0 ],
					"fgcolor" : [ 0.666667, 0.666667, 0.666667, 1.0 ],
					"fontsize" : 8.998901,
					"hbwidthcolor" : [ 0.823529, 0.290196, 0.211765, 1.0 ],
					"hcurvecolor" : [ 1.0, 0.086275, 0.086275, 1.0 ],
					"id" : "obj-9",
					"logamp" : 0,
					"logmarkers" : [ 50.0, 500.0, 5000.0 ],
					"markercolor" : [ 0.509804, 0.509804, 0.509804, 1.0 ],
					"maxclass" : "filtergraph~",
					"nfilters" : 1,
					"numinlets" : 8,
					"numoutlets" : 7,
					"outlettype" : [ "list", "float", "float", "float", "float", "list", "int" ],
					"patching_rect" : [ 225.0, 165.0, 94.0, 48.0 ],
					"range" : [ 0.0, 2.0 ],
					"setfilter" : [ 0, 5, 0, 0, 0, 758.245544, 1.0, 12.5, 0.0001, 22050.0, 0.0001, 2.0, 0.5, 25.0 ]
				}

			}
, 			{
				"box" : 				{
					"autoout" : 1,
					"bgcolor" : [ 0.823529, 0.823529, 0.823529, 1.0 ],
					"bwidthcolor" : [ 0.462745, 0.47451, 0.65098, 1.0 ],
					"dbdisplay" : 0,
					"domain" : [ 0.0, 22050.0 ],
					"fgcolor" : [ 0.666667, 0.666667, 0.666667, 1.0 ],
					"fontsize" : 8.998901,
					"hbwidthcolor" : [ 0.823529, 0.290196, 0.211765, 1.0 ],
					"hcurvecolor" : [ 1.0, 0.086275, 0.086275, 1.0 ],
					"id" : "obj-10",
					"logamp" : 0,
					"logmarkers" : [ 50.0, 500.0, 5000.0 ],
					"markercolor" : [ 0.509804, 0.509804, 0.509804, 1.0 ],
					"maxclass" : "filtergraph~",
					"nfilters" : 1,
					"numinlets" : 8,
					"numoutlets" : 7,
					"outlettype" : [ "list", "float", "float", "float", "float", "list", "int" ],
					"patching_rect" : [ 75.0, 165.0, 94.0, 48.0 ],
					"range" : [ 0.0, 2.0 ],
					"setfilter" : [ 0, 6, 0, 0, 0, 125.694527, 1.0, 1.0, 0.0001, 22050.0, 0.0001, 2.0, 0.5, 25.0 ]
				}

			}
, 			{
				"box" : 				{
					"border" : 3,
					"id" : "obj-2",
					"maxclass" : "panel",
					"numinlets" : 1,
					"numoutlets" : 0,
					"patching_rect" : [ 165.0, 525.0, 26.0, 27.0 ],
					"presentation" : 1,
					"presentation_rect" : [ 4.0, 3.0, 158.0, 64.0 ]
				}

			}
, 			{
				"box" : 				{
					"bgcolor" : [ 0.623529, 0.094118, 0.8, 1.0 ],
					"border" : 3,
					"id" : "obj-13",
					"maxclass" : "panel",
					"numinlets" : 1,
					"numoutlets" : 0,
					"patching_rect" : [ 165.0, 525.0, 26.0, 27.0 ],
					"presentation" : 1,
					"presentation_rect" : [ 4.0, 69.0, 158.0, 62.0 ]
				}

			}
, 			{
				"box" : 				{
					"bgcolor" : [ 0.0, 0.498039, 1.0, 1.0 ],
					"border" : 3,
					"id" : "obj-14",
					"maxclass" : "panel",
					"numinlets" : 1,
					"numoutlets" : 0,
					"patching_rect" : [ 165.0, 525.0, 26.0, 27.0 ],
					"presentation" : 1,
					"presentation_rect" : [ 166.0, 3.0, 158.0, 64.0 ]
				}

			}
, 			{
				"box" : 				{
					"bgcolor" : [ 0.254902, 0.564706, 0.270588, 1.0 ],
					"border" : 3,
					"id" : "obj-15",
					"maxclass" : "panel",
					"numinlets" : 1,
					"numoutlets" : 0,
					"patching_rect" : [ 165.0, 525.0, 26.0, 27.0 ],
					"presentation" : 1,
					"presentation_rect" : [ 166.0, 69.0, 158.0, 62.0 ]
				}

			}
, 			{
				"box" : 				{
					"bgcolor" : [ 1.0, 0.94902, 0.0, 1.0 ],
					"border" : 3,
					"id" : "obj-17",
					"maxclass" : "panel",
					"numinlets" : 1,
					"numoutlets" : 0,
					"patching_rect" : [ 165.0, 525.0, 26.0, 27.0 ],
					"presentation" : 1,
					"presentation_rect" : [ 328.0, 69.0, 158.0, 63.0 ]
				}

			}
, 			{
				"box" : 				{
					"bgcolor" : [ 0.74902, 1.0, 0.0, 1.0 ],
					"border" : 3,
					"id" : "obj-16",
					"maxclass" : "panel",
					"numinlets" : 1,
					"numoutlets" : 0,
					"patching_rect" : [ 165.0, 525.0, 26.0, 27.0 ],
					"presentation" : 1,
					"presentation_rect" : [ 328.0, 3.0, 158.0, 65.0 ]
				}

			}
 ],
		"lines" : [ 			{
				"patchline" : 				{
					"destination" : [ "obj-4", 0 ],
					"hidden" : 0,
					"midpoints" : [  ],
					"source" : [ "obj-1", 0 ]
				}

			}
, 			{
				"patchline" : 				{
					"destination" : [ "obj-4", 0 ],
					"hidden" : 0,
					"midpoints" : [  ],
					"source" : [ "obj-10", 0 ]
				}

			}
, 			{
				"patchline" : 				{
					"destination" : [ "obj-10", 7 ],
					"hidden" : 0,
					"midpoints" : [  ],
					"source" : [ "obj-11", 0 ]
				}

			}
, 			{
				"patchline" : 				{
					"destination" : [ "obj-10", 6 ],
					"hidden" : 0,
					"midpoints" : [  ],
					"source" : [ "obj-12", 0 ]
				}

			}
, 			{
				"patchline" : 				{
					"destination" : [ "obj-3", 0 ],
					"hidden" : 0,
					"midpoints" : [  ],
					"source" : [ "obj-22", 0 ]
				}

			}
, 			{
				"patchline" : 				{
					"destination" : [ "obj-22", 0 ],
					"hidden" : 0,
					"midpoints" : [  ],
					"source" : [ "obj-24", 0 ]
				}

			}
, 			{
				"patchline" : 				{
					"destination" : [ "obj-69", 0 ],
					"hidden" : 0,
					"midpoints" : [  ],
					"source" : [ "obj-3", 0 ]
				}

			}
, 			{
				"patchline" : 				{
					"destination" : [ "obj-9", 6 ],
					"hidden" : 0,
					"midpoints" : [  ],
					"source" : [ "obj-35", 0 ]
				}

			}
, 			{
				"patchline" : 				{
					"destination" : [ "obj-9", 7 ],
					"hidden" : 0,
					"midpoints" : [  ],
					"source" : [ "obj-36", 0 ]
				}

			}
, 			{
				"patchline" : 				{
					"destination" : [ "obj-3", 0 ],
					"hidden" : 0,
					"midpoints" : [  ],
					"source" : [ "obj-4", 0 ]
				}

			}
, 			{
				"patchline" : 				{
					"destination" : [ "obj-10", 5 ],
					"hidden" : 0,
					"midpoints" : [  ],
					"source" : [ "obj-42", 0 ]
				}

			}
, 			{
				"patchline" : 				{
					"destination" : [ "obj-9", 5 ],
					"hidden" : 0,
					"midpoints" : [  ],
					"source" : [ "obj-43", 0 ]
				}

			}
, 			{
				"patchline" : 				{
					"destination" : [ "obj-8", 5 ],
					"hidden" : 0,
					"midpoints" : [  ],
					"source" : [ "obj-44", 0 ]
				}

			}
, 			{
				"patchline" : 				{
					"destination" : [ "obj-8", 6 ],
					"hidden" : 0,
					"midpoints" : [  ],
					"source" : [ "obj-45", 0 ]
				}

			}
, 			{
				"patchline" : 				{
					"destination" : [ "obj-8", 7 ],
					"hidden" : 0,
					"midpoints" : [  ],
					"source" : [ "obj-46", 0 ]
				}

			}
, 			{
				"patchline" : 				{
					"destination" : [ "obj-7", 5 ],
					"hidden" : 0,
					"midpoints" : [  ],
					"source" : [ "obj-48", 1 ]
				}

			}
, 			{
				"patchline" : 				{
					"destination" : [ "obj-7", 6 ],
					"hidden" : 0,
					"midpoints" : [  ],
					"source" : [ "obj-49", 0 ]
				}

			}
, 			{
				"patchline" : 				{
					"destination" : [ "obj-1", 0 ],
					"hidden" : 0,
					"midpoints" : [  ],
					"source" : [ "obj-5", 0 ]
				}

			}
, 			{
				"patchline" : 				{
					"destination" : [ "obj-4", 25 ],
					"hidden" : 0,
					"midpoints" : [  ],
					"source" : [ "obj-5", 0 ]
				}

			}
, 			{
				"patchline" : 				{
					"destination" : [ "obj-7", 7 ],
					"hidden" : 0,
					"midpoints" : [  ],
					"source" : [ "obj-50", 0 ]
				}

			}
, 			{
				"patchline" : 				{
					"destination" : [ "obj-6", 5 ],
					"hidden" : 0,
					"midpoints" : [  ],
					"source" : [ "obj-52", 0 ]
				}

			}
, 			{
				"patchline" : 				{
					"destination" : [ "obj-6", 6 ],
					"hidden" : 0,
					"midpoints" : [  ],
					"source" : [ "obj-53", 0 ]
				}

			}
, 			{
				"patchline" : 				{
					"destination" : [ "obj-6", 7 ],
					"hidden" : 0,
					"midpoints" : [  ],
					"source" : [ "obj-54", 0 ]
				}

			}
, 			{
				"patchline" : 				{
					"destination" : [ "obj-5", 5 ],
					"hidden" : 0,
					"midpoints" : [  ],
					"source" : [ "obj-56", 0 ]
				}

			}
, 			{
				"patchline" : 				{
					"destination" : [ "obj-5", 6 ],
					"hidden" : 0,
					"midpoints" : [  ],
					"source" : [ "obj-57", 0 ]
				}

			}
, 			{
				"patchline" : 				{
					"destination" : [ "obj-5", 7 ],
					"hidden" : 0,
					"midpoints" : [  ],
					"source" : [ "obj-58", 0 ]
				}

			}
, 			{
				"patchline" : 				{
					"destination" : [ "obj-1", 0 ],
					"hidden" : 0,
					"midpoints" : [  ],
					"source" : [ "obj-6", 0 ]
				}

			}
, 			{
				"patchline" : 				{
					"destination" : [ "obj-4", 20 ],
					"hidden" : 0,
					"midpoints" : [  ],
					"source" : [ "obj-6", 0 ]
				}

			}
, 			{
				"patchline" : 				{
					"destination" : [ "obj-72", 0 ],
					"hidden" : 0,
					"midpoints" : [ 39.5, 429.5, 99.5, 429.5 ],
					"source" : [ "obj-68", 0 ]
				}

			}
, 			{
				"patchline" : 				{
					"destination" : [ "obj-72", 1 ],
					"hidden" : 0,
					"midpoints" : [  ],
					"source" : [ "obj-69", 0 ]
				}

			}
, 			{
				"patchline" : 				{
					"destination" : [ "obj-1", 0 ],
					"hidden" : 0,
					"midpoints" : [  ],
					"source" : [ "obj-7", 0 ]
				}

			}
, 			{
				"patchline" : 				{
					"destination" : [ "obj-4", 15 ],
					"hidden" : 0,
					"midpoints" : [  ],
					"source" : [ "obj-7", 0 ]
				}

			}
, 			{
				"patchline" : 				{
					"destination" : [ "obj-67", 0 ],
					"hidden" : 0,
					"midpoints" : [  ],
					"source" : [ "obj-72", 0 ]
				}

			}
, 			{
				"patchline" : 				{
					"destination" : [ "obj-1", 0 ],
					"hidden" : 0,
					"midpoints" : [  ],
					"source" : [ "obj-8", 0 ]
				}

			}
, 			{
				"patchline" : 				{
					"destination" : [ "obj-4", 10 ],
					"hidden" : 0,
					"midpoints" : [  ],
					"source" : [ "obj-8", 0 ]
				}

			}
, 			{
				"patchline" : 				{
					"destination" : [ "obj-1", 0 ],
					"hidden" : 0,
					"midpoints" : [  ],
					"source" : [ "obj-9", 0 ]
				}

			}
, 			{
				"patchline" : 				{
					"destination" : [ "obj-4", 5 ],
					"hidden" : 0,
					"midpoints" : [  ],
					"source" : [ "obj-9", 0 ]
				}

			}
 ],
		"parameters" : 		{
			"obj-35" : [ "Q[2]", "Gain", 0 ],
			"obj-57" : [ "Q[10]", "Gain", 0 ],
			"obj-53" : [ "Q[8]", "Gain", 0 ],
			"obj-50" : [ "Q[7]", "Q", 0 ],
			"obj-46" : [ "Q[5]", "Q", 0 ],
			"obj-49" : [ "Q[6]", "Gain", 0 ],
			"obj-45" : [ "Q[4]", "Gain", 0 ],
			"obj-12" : [ "Q[1]", "Gain", 0 ],
			"obj-11" : [ "Q", "Q", 0 ],
			"obj-36" : [ "Q[3]", "Q", 0 ],
			"obj-58" : [ "Q[11]", "Q", 0 ],
			"obj-54" : [ "Q[9]", "Q", 0 ]
		}

	}

}
